<?xml version="1.0" ?><svg id="Layer_1" style="enable-background:new 0 0 64 64;" version="1.1" viewBox="0 0 64 64" xml:space="preserve" xmlns="http://www.w3.org/2000/svg" xmlns:xlink="http://www.w3.org/1999/xlink"><style type="text/css">
	.st0{fill:#57CEF3;}
	.st1{fill:#0779E4;}
	.st2{fill-rule:evenodd;clip-rule:evenodd;fill:#FFFFFF;}
	.st3{fill:#ACBDC5;}
	.st4{fill-rule:evenodd;clip-rule:evenodd;fill:#393E46;}
</style><g id="Facebook_Gaming"><rect class="st0" height="50" width="58" x="3" y="3"/><path class="st1" d="M25,0H0v64h48v-3h13V20h-1c0,17.7-16.1,32-36,32c-2.8,0-5.1-0.3-7.2-0.8C9.3,49.5,4,45.1,4,40V4h21V0z"/><polygon class="st2" points="20,20 61,20 61,24 24,24 24,40 44,40 44,50 40,50 40,44 20,44  "/><path class="st3" d="M40,48.7V61h4V46.6C42.7,47.4,41.4,48.1,40,48.7z"/><polygon class="st4" points="20,0 64,0 64,64 40,64 40,60 60,60 60,4 20,4  "/></g></svg>