<?xml version="1.0" ?><svg id="Layer_1" style="enable-background:new 0 0 64 64;" version="1.1" viewBox="0 0 64 64" xml:space="preserve" xmlns="http://www.w3.org/2000/svg" xmlns:xlink="http://www.w3.org/1999/xlink"><style type="text/css">
	.st0{fill:#FF768F;}
	.st1{fill-rule:evenodd;clip-rule:evenodd;fill:#C32361;}
	.st2{fill-rule:evenodd;clip-rule:evenodd;fill:#314A52;}
</style><g id="Dribbble"><circle class="st0" cx="32" cy="32" r="30"/><path class="st1" d="M60,32.2c0-0.1,0-0.1,0-0.2c0-6.8-2.5-13.1-6.5-18c-4.7,5.4-10.4,9-16.3,11.5c0.9,1.9,1.8,3.8,2.6,5.7   C46,30.1,52.8,30.4,60,32.2z M46,50.3c7.2-2.1,12.3-6.4,13.7-14.1c-6.6-1.7-12.8-2-18.4-1.2C43.1,39.7,44.6,44.8,46,50.3z    M17.3,50.1C21.5,51.4,26.6,52,32,52c3.6,0,7-0.2,10.1-0.8c-1.3-5.6-2.9-10.6-4.8-15.3c-1.6,0.4-3.2,1-4.7,1.6   C26.5,40.1,21.3,44.4,17.3,50.1z M4,31c0,0.3,0,0.7,0,1c0,8.4,3.7,13.5,9.5,16.5c4.5-6.6,10.5-11.7,17.6-14.7   c1.5-0.6,3.1-1.2,4.7-1.7c-0.8-1.8-1.6-3.5-2.4-5.2C23.3,30.2,12.7,30.7,4,31z M20.5,6.5C12.2,10.2,6.1,17.8,4.5,27   c8.5-0.3,18.1-0.8,27.1-3.7C28.3,17.5,24.7,12.1,20.5,6.5z M24.4,5c2.4-0.7,5-1,7.6-1c7.2,0,13.7,2.7,18.7,7.1   c-4.4,5.1-9.7,8.5-15.4,10.8C32.2,16.1,28.5,10.6,24.4,5z M32,0C14.3,0,0,14.3,0,32s14.3,32,32,32c17.7,0,32-14.3,32-32   S49.7,0,32,0z"/><path class="st2" d="M20.5,6.5C20.5,6.5,20.5,6.4,20.5,6.5L20.5,6.5C20.5,6.5,20.5,6.5,20.5,6.5z M21.9,1.6   c0.9,1.1,1.7,2.3,2.5,3.4c5.7-1.6,11.9-1.4,17.5,0.8c6.9,2.6,12.6,7.9,15.6,14.7s3.3,14.5,0.7,21.4c-2.1,5.6-6,10.4-11,13.6   c0.3,1.4,0.5,2.8,0.8,4.2c6.4-3.7,11.4-9.5,14-16.4c3-7.9,2.7-16.7-0.8-24.5c-3.5-7.7-9.9-13.8-17.9-16.8   C36.4-0.5,28.8-0.7,21.9,1.6z"/></g></svg>