<?xml version="1.0" ?><svg id="Layer_1" style="enable-background:new 0 0 64 64;" version="1.1" viewBox="0 0 64 64" xml:space="preserve" xmlns="http://www.w3.org/2000/svg" xmlns:xlink="http://www.w3.org/1999/xlink"><style type="text/css">
	.st0{fill:#CCE490;}
	.st1{fill:#43CC47;}
	.st2{fill-rule:evenodd;clip-rule:evenodd;fill:#314A52;}
	.st3{fill:#FFFFFF;}
</style><g id="iMessage"><path class="st0" d="M3,13C3,7.5,7.5,3,13,3h38c5.5,0,10,4.5,10,10v38c0,5.5-4.5,10-10,10H13C7.5,61,3,56.5,3,51V13z"/><path class="st1" d="M21.2,0L21.2,0c-3.4,0-6,0-8,0.2C11,0.3,9.3,0.7,7.6,1.5C5,2.9,2.9,5,1.5,7.6C0.7,9.3,0.3,11,0.2,13.2   C0,15.2,0,17.8,0,21.1v21.8c0,3.3,0,5.9,0.2,8c0.2,2.1,0.5,3.9,1.4,5.5C2.9,59,5,61.1,7.6,62.5c1.6,0.8,3.4,1.2,5.5,1.4   c2.1,0.2,4.7,0.2,8,0.2h21.7c2,0,3.7,0,5.2,0L48,61h6l7-7V20h-1c0,12.2-7.7,22.8-19,28.2c-3.5,2.3-9.8,3.8-17,3.8   c-11,0-19.9-3.6-20-7.9c0-0.4,0-0.8,0-1.3V21.2c0-3.4,0-5.8,0.2-7.7c0.2-1.9,0.4-3.1,0.9-4C6,7.6,7.6,6,9.5,5.1   c1-0.5,2.1-0.8,4-0.9C15.4,4,17.8,4,21.2,4V0z"/><path class="st2" d="M50.5,4.2C48.6,4,46.2,4,42.8,4H21.2c-0.4,0-0.8,0-1.2,0l0-4c0.4,0,0.8,0,1.2,0h21.7c3.3,0,5.9,0,8,0.2   c2.1,0.2,3.9,0.5,5.5,1.4C59,2.9,61.1,5,62.5,7.6c0.8,1.6,1.2,3.4,1.4,5.5c0.2,2.1,0.2,4.7,0.2,8v21.8c0,3.3,0,5.9-0.2,8   c-0.2,2.1-0.5,3.9-1.4,5.5c-1.3,2.6-3.5,4.8-6.1,6.1c-1.5,0.8-3.2,1.1-5.1,1.3C49.3,64,46.9,64,44,64l0-4c3,0,5.1,0,6.9-0.2   c1.7-0.2,2.8-0.4,3.7-0.9c1.9-1,3.4-2.5,4.4-4.4c0.5-1,0.8-2.1,0.9-4c0.2-1.9,0.2-4.3,0.2-7.7V21.2c0-3.4,0-5.8-0.2-7.7   c-0.2-1.9-0.4-3.1-0.9-4c-1-1.9-2.5-3.4-4.4-4.4C53.6,4.6,52.4,4.3,50.5,4.2z"/><path class="st3" d="M56,31c0,10.5-10.7,19-24,19c-1.7,0-3.4-0.1-5-0.4c-0.9-0.2-1.8-0.1-2.6,0.4c-0.6,0.4-1.3,1-1.9,1.5   C20.6,52.9,18,54,17,54h-0.2c-0.5,0-0.8-0.4-0.8-0.8c0-0.3,0.1-0.5,0.4-0.7c0.8-0.8,1.1-1.1,2.1-2.1c0.6-0.6,1-1.1,1.2-1.6   c0.3-0.7-0.2-1.5-0.9-1.9C12.3,43.5,8,37.6,8,31c0-10.5,10.7-19,24-19C45.3,12,56,20.5,56,31z"/></g></svg>